# xmcd
#
# Track frame offsets:
#	150
#	11940
#	24486
#	37796
#	51296
#	68161
#	81198
#	94190
#	111248
#	120393
#
# Disc length: 1821 seconds
# Revision: 0
# Processed by: cddbd v1.5.2PL0 Copyright (c) Steve Scherf et al.
# Submitted via: dBpowerAMP V12.0
#
DISCID=7a071b0a
DTITLE=Marty Raybon and Full Circle - The Back Forty
DYEAR=2013
DGENRE=Country
TTITLE0=That Janie Baker
TTITLE1=She's Just an Old Love Turned Memory
TTITLE2=The Late Night Cry of the Whippoorwill
TTITLE3=Slowly (I'm Falling)
TTITLE4=Look For Me (For I Will Be There Too)
TTITLE5=The Big Burnsville Jail
TTITLE6=A Little More Sawdust On the Floor
TTITLE7=Only You, Only You
TTITLE8=Hurt Me All the Time
TTITLE9=Mountain Love
EXTD=
EXTT0=
EXTT1=
EXTT2=
EXTT3=
EXTT4=
EXTT5=
EXTT6=
EXTT7=
EXTT8=
EXTT9=
PLAYORDER=
